<?xml version="1.0" encoding="UTF-8"?>
<svg xmlns="http://www.w3.org/2000/svg" xmlns:xlink="http://www.w3.org/1999/xlink" width="24px" height="24px" viewBox="0 0 24 24" version="1.1">
<g id="surface1">
<path style=" stroke:none;fill-rule:nonzero;fill:rgb(0%,0%,0%);fill-opacity:1;" d="M 20.769531 3.34375 L 19.535156 3.34375 L 19.535156 2.109375 C 19.535156 1.867188 19.339844 1.671875 19.097656 1.671875 L 17.863281 1.671875 L 17.863281 0.4375 C 17.863281 0.195312 17.667969 0 17.429688 0 L 3.230469 0 C 2.988281 0 2.792969 0.195312 2.792969 0.4375 L 2.792969 20.222656 C 2.792969 20.460938 2.988281 20.65625 3.230469 20.65625 L 4.464844 20.65625 L 4.464844 21.890625 C 4.464844 22.132812 4.660156 22.328125 4.902344 22.328125 L 6.136719 22.328125 L 6.136719 23.5625 C 6.136719 23.804688 6.332031 24 6.570312 24 L 20.769531 24 C 21.011719 24 21.207031 23.804688 21.207031 23.5625 L 21.207031 3.777344 C 21.207031 3.539062 21.011719 3.34375 20.769531 3.34375 Z M 3.664062 19.785156 L 3.664062 0.871094 L 16.992188 0.871094 L 16.992188 19.785156 Z M 5.335938 21.457031 L 5.335938 20.65625 L 17.429688 20.65625 C 17.667969 20.65625 17.863281 20.460938 17.863281 20.222656 L 17.863281 2.542969 L 18.664062 2.542969 L 18.664062 21.457031 Z M 20.335938 23.128906 L 7.007812 23.128906 L 7.007812 22.328125 L 19.097656 22.328125 C 19.339844 22.328125 19.535156 22.132812 19.535156 21.890625 L 19.535156 4.214844 L 20.335938 4.214844 Z M 20.335938 23.128906 "/>
<path style=" stroke:none;fill-rule:nonzero;fill:rgb(0%,0%,0%);fill-opacity:1;" d="M 12.71875 4.480469 L 7.941406 4.480469 C 7.699219 4.480469 7.503906 4.675781 7.503906 4.917969 C 7.503906 5.160156 7.699219 5.355469 7.941406 5.355469 L 12.714844 5.355469 C 12.957031 5.355469 13.152344 5.160156 13.152344 4.917969 C 13.152344 4.675781 12.957031 4.480469 12.71875 4.480469 Z M 12.71875 4.480469 "/>
<path style=" stroke:none;fill-rule:nonzero;fill:rgb(0%,0%,0%);fill-opacity:1;" d="M 14.691406 6.644531 L 5.964844 6.644531 C 5.722656 6.644531 5.527344 6.839844 5.527344 7.082031 C 5.527344 7.324219 5.722656 7.519531 5.964844 7.519531 L 14.691406 7.519531 C 14.933594 7.519531 15.128906 7.324219 15.128906 7.082031 C 15.128906 6.839844 14.933594 6.644531 14.691406 6.644531 Z M 14.691406 6.644531 "/>
<path style=" stroke:none;fill-rule:nonzero;fill:rgb(0%,0%,0%);fill-opacity:1;" d="M 14.691406 8.808594 L 5.964844 8.808594 C 5.722656 8.808594 5.527344 9.003906 5.527344 9.246094 C 5.527344 9.488281 5.722656 9.683594 5.964844 9.683594 L 14.691406 9.683594 C 14.933594 9.683594 15.128906 9.488281 15.128906 9.246094 C 15.128906 9.003906 14.933594 8.808594 14.691406 8.808594 Z M 14.691406 8.808594 "/>
<path style=" stroke:none;fill-rule:nonzero;fill:rgb(0%,0%,0%);fill-opacity:1;" d="M 14.691406 10.976562 L 5.964844 10.976562 C 5.722656 10.976562 5.527344 11.171875 5.527344 11.410156 C 5.527344 11.652344 5.722656 11.847656 5.964844 11.847656 L 14.691406 11.847656 C 14.933594 11.847656 15.128906 11.652344 15.128906 11.410156 C 15.128906 11.171875 14.933594 10.976562 14.691406 10.976562 Z M 14.691406 10.976562 "/>
<path style=" stroke:none;fill-rule:nonzero;fill:rgb(0%,0%,0%);fill-opacity:1;" d="M 14.691406 13.140625 L 5.964844 13.140625 C 5.722656 13.140625 5.527344 13.335938 5.527344 13.574219 C 5.527344 13.816406 5.722656 14.011719 5.964844 14.011719 L 14.691406 14.011719 C 14.933594 14.011719 15.128906 13.816406 15.128906 13.574219 C 15.128906 13.335938 14.933594 13.140625 14.691406 13.140625 Z M 14.691406 13.140625 "/>
<path style=" stroke:none;fill-rule:nonzero;fill:rgb(0%,0%,0%);fill-opacity:1;" d="M 14.691406 15.304688 L 5.964844 15.304688 C 5.722656 15.304688 5.527344 15.5 5.527344 15.738281 C 5.527344 15.980469 5.722656 16.175781 5.964844 16.175781 L 14.691406 16.175781 C 14.933594 16.175781 15.128906 15.980469 15.128906 15.738281 C 15.128906 15.5 14.933594 15.304688 14.691406 15.304688 Z M 14.691406 15.304688 "/>
</g>
</svg>
